<?xml version="1.0" encoding="utf-8"?>
<!-- Generator: Adobe Illustrator 24.3.0, SVG Export Plug-In . SVG Version: 6.00 Build 0)  -->
<svg version="1.1" xmlns="http://www.w3.org/2000/svg" xmlns:xlink="http://www.w3.org/1999/xlink" x="0px" y="0px"
	 width="544.252px" height="68.031px" viewBox="0 0 544.252 68.031" enable-background="new 0 0 544.252 68.031"
	 xml:space="preserve">
<g id="dark">
	<g>
		<g>
			<path fill="#2446D2" d="M24.303,67.266l-16-8.5v-58l16,8.5V67.266z"/>
			<path fill="#C3EEFF" d="M16.303,63.027l-16-8.5v-49l16,8.5V63.027z"/>
			<path fill-rule="evenodd" clip-rule="evenodd" fill="#5685FC" d="M16.303,63.016l-8-4.25V9.777l8,4.25V63.016z"/>
		</g>
		<g>
			<g>
				<path fill="#FFFFFF" d="M36.83,36.075v-23.43h6.436v14.256l8.646-14.256h6.006v23.43h-6.435V21.819l-8.547,14.256H36.83z"/>
				<path fill="#FFFFFF" d="M82.517,12.646v23.43h-6.435v-9.174h-7.854v9.174h-6.435v-23.43h6.435v8.646h7.854v-8.646H82.517z"/>
				<path fill="#FFFFFF" d="M106.245,30.069c0,1.408-0.38,2.553-1.138,3.432c-0.76,0.881-1.777,1.53-3.053,1.947
					c-1.276,0.418-2.685,0.627-4.225,0.627H86.313v-23.43h13.596c1.101,0,2.052,0.292,2.854,0.874
					c0.803,0.584,1.419,1.337,1.848,2.261c0.43,0.924,0.645,1.881,0.645,2.871c0,1.078-0.281,2.123-0.842,3.135
					c-0.561,1.013-1.402,1.771-2.525,2.277c1.342,0.396,2.404,1.089,3.186,2.079C105.854,27.133,106.245,28.442,106.245,30.069z
					 M92.748,18.123v3.598h4.389c0.286,0,0.562-0.05,0.826-0.148c0.264-0.1,0.482-0.281,0.659-0.545s0.265-0.638,0.265-1.122
					c0-0.439-0.072-0.786-0.215-1.039c-0.144-0.253-0.33-0.44-0.561-0.562c-0.231-0.12-0.49-0.182-0.775-0.182H92.748z
					 M99.711,28.749c0-0.396-0.071-0.742-0.215-1.039c-0.143-0.297-0.335-0.533-0.576-0.71c-0.243-0.176-0.529-0.264-0.858-0.264
					h-5.313v3.927h5.082c0.352,0,0.671-0.076,0.957-0.23c0.285-0.154,0.512-0.374,0.677-0.66S99.711,29.146,99.711,28.749z"/>
				<path fill="#FFFFFF" d="M125.613,30.466v5.609h-16.698v-23.43h16.401v5.61h-9.967v3.3h8.514v5.214h-8.514v3.696H125.613z"/>
				<path fill="#FFFFFF" d="M126.873,24.13c0-1.431,0.27-2.833,0.809-4.208s1.325-2.623,2.359-3.745
					c1.033-1.122,2.293-2.019,3.778-2.689s3.163-1.007,5.032-1.007c2.244,0,4.202,0.468,5.875,1.402
					c1.671,0.936,2.914,2.173,3.729,3.713l-4.917,3.498c-0.286-0.771-0.698-1.364-1.237-1.782s-1.122-0.71-1.75-0.875
					c-0.627-0.165-1.236-0.247-1.83-0.247c-0.925,0-1.723,0.182-2.393,0.545c-0.672,0.362-1.222,0.841-1.65,1.436
					c-0.43,0.594-0.748,1.254-0.957,1.979s-0.314,1.452-0.314,2.178c0,0.814,0.121,1.596,0.363,2.344s0.594,1.413,1.057,1.996
					c0.462,0.583,1.027,1.039,1.699,1.369c0.671,0.33,1.424,0.495,2.261,0.495c0.594,0,1.198-0.093,1.815-0.28
					c0.615-0.187,1.176-0.489,1.683-0.907c0.506-0.418,0.891-0.979,1.155-1.684l5.246,3.136c-0.461,1.144-1.232,2.123-2.31,2.937
					c-1.078,0.814-2.3,1.436-3.663,1.864c-1.364,0.43-2.717,0.644-4.059,0.644c-1.738,0-3.328-0.347-4.77-1.039
					c-1.44-0.693-2.684-1.617-3.729-2.772c-1.045-1.154-1.854-2.452-2.426-3.894C127.158,27.095,126.873,25.626,126.873,24.13z"/>
				<path fill="#FFFFFF" d="M169.673,18.256h-6.732v17.819h-6.435V18.256h-6.765v-5.61h19.932V18.256z"/>
				<path fill="#FFFFFF" d="M171.739,36.075v-23.43h6.435v14.256l8.646-14.256h6.006v23.43h-6.436V21.819l-8.547,14.256H171.739z"/>
				<path fill="#FFFFFF" d="M213.83,40.564v-4.488h-17.127v-23.43h6.436v17.82h6.566v-17.82h6.436v17.82h3.3v10.098H213.83z"/>
				<path fill="#FFFFFF" d="M222.07,36.075v-23.43h6.436v14.256l8.646-14.256h6.006v23.43h-6.436V21.819l-8.547,14.256H222.07z"/>
				<path fill="#FFFFFF" d="M257.509,36.24c-1.782,0-3.399-0.335-4.852-1.006c-1.451-0.671-2.701-1.573-3.745-2.706
					c-1.046-1.133-1.849-2.409-2.409-3.828s-0.842-2.888-0.842-4.405c0-1.562,0.297-3.047,0.892-4.455
					c0.594-1.408,1.424-2.668,2.491-3.779c1.066-1.11,2.332-1.984,3.795-2.623c1.463-0.638,3.063-0.957,4.802-0.957
					c1.782,0,3.399,0.336,4.851,1.007c1.452,0.671,2.695,1.578,3.729,2.722c1.034,1.145,1.831,2.426,2.393,3.845
					c0.561,1.419,0.841,2.877,0.841,4.373c0,1.54-0.291,3.014-0.874,4.422s-1.408,2.668-2.476,3.778
					c-1.066,1.111-2.326,1.991-3.777,2.64C260.875,35.916,259.269,36.24,257.509,36.24z M252.196,24.361
					c0,0.792,0.11,1.557,0.33,2.294s0.55,1.397,0.99,1.979c0.44,0.583,0.995,1.045,1.667,1.386c0.67,0.342,1.468,0.512,2.393,0.512
					c0.924,0,1.727-0.176,2.408-0.527c0.682-0.353,1.238-0.831,1.666-1.436c0.43-0.605,0.748-1.276,0.957-2.014
					c0.209-0.736,0.314-1.49,0.314-2.26c0-0.793-0.111-1.552-0.33-2.277c-0.221-0.727-0.551-1.381-0.99-1.964
					c-0.44-0.582-1.002-1.039-1.684-1.369s-1.474-0.495-2.375-0.495c-0.924,0-1.723,0.177-2.393,0.528
					c-0.672,0.352-1.227,0.819-1.667,1.402s-0.765,1.243-0.974,1.979C252.3,22.837,252.196,23.591,252.196,24.361z"/>
				<path fill="#FFFFFF" d="M292.601,12.646v23.43h-6.436v-9.174h-7.854v9.174h-6.436v-23.43h6.436v8.646h7.854v-8.646H292.601z"/>
				<path fill="#FFFFFF" d="M317.12,12.646v23.43h-6.435v-9.174h-7.854v9.174h-6.436v-23.43h6.436v8.646h7.854v-8.646H317.12z"/>
				<path fill="#FFFFFF" d="M320.916,36.075v-23.43h6.435v7.755h3.827c1.76,0,3.273,0.313,4.538,0.94s2.244,1.519,2.937,2.673
					c0.693,1.155,1.04,2.536,1.04,4.142c0,1.629-0.33,3.036-0.99,4.225c-0.659,1.188-1.601,2.101-2.821,2.738
					c-1.221,0.639-2.679,0.957-4.373,0.957H320.916z M327.35,30.861h3.233c0.572,0,1.045-0.109,1.42-0.33
					c0.373-0.22,0.654-0.533,0.841-0.94c0.187-0.406,0.28-0.885,0.28-1.436c0-0.439-0.099-0.853-0.297-1.237
					c-0.197-0.385-0.484-0.698-0.857-0.94c-0.375-0.242-0.837-0.363-1.387-0.363h-3.233V30.861z M342.695,36.075v-23.43h6.436v23.43
					H342.695z"/>
				<path fill="#FFFFFF" d="M369.642,30.466v5.609h-16.697v-23.43h16.4v5.61h-9.965v3.3h8.514v5.214h-8.514v3.696H369.642z"/>
				<path fill="#FFFFFF" d="M380.795,36.075v-23.43h20.098v23.43h-6.436V18.256h-7.227v17.819H380.795z"/>
				<path fill="#FFFFFF" d="M404.754,36.075v-23.43h10.098c1.145,0,2.199,0.23,3.168,0.693c0.969,0.462,1.805,1.083,2.508,1.864
					c0.705,0.781,1.248,1.655,1.635,2.623c0.383,0.969,0.576,1.947,0.576,2.938c0,1.386-0.324,2.695-0.973,3.927
					c-0.65,1.232-1.551,2.239-2.707,3.02c-1.154,0.781-2.502,1.172-4.041,1.172h-3.828v7.193H404.754z M411.189,23.272h3.398
					c0.264,0,0.516-0.077,0.76-0.231c0.24-0.153,0.445-0.417,0.609-0.792c0.166-0.373,0.248-0.868,0.248-1.484
					c0-0.66-0.094-1.172-0.281-1.535c-0.188-0.362-0.418-0.615-0.693-0.759c-0.275-0.143-0.543-0.214-0.809-0.214h-3.232V23.272z"/>
				<path fill="#FFFFFF" d="M435.992,36.24c-1.783,0-3.4-0.335-4.852-1.006c-1.453-0.671-2.701-1.573-3.746-2.706
					c-1.045-1.133-1.848-2.409-2.408-3.828s-0.842-2.888-0.842-4.405c0-1.562,0.297-3.047,0.891-4.455s1.424-2.668,2.492-3.779
					c1.066-1.11,2.332-1.984,3.795-2.623c1.463-0.638,3.062-0.957,4.801-0.957c1.783,0,3.398,0.336,4.852,1.007
					c1.451,0.671,2.695,1.578,3.729,2.722c1.033,1.145,1.832,2.426,2.393,3.845s0.842,2.877,0.842,4.373
					c0,1.54-0.291,3.014-0.875,4.422c-0.582,1.408-1.408,2.668-2.475,3.778c-1.066,1.111-2.326,1.991-3.779,2.64
					C439.357,35.916,437.752,36.24,435.992,36.24z M430.677,24.361c0,0.792,0.111,1.557,0.33,2.294
					c0.221,0.737,0.551,1.397,0.99,1.979c0.439,0.583,0.996,1.045,1.666,1.386c0.672,0.342,1.469,0.512,2.393,0.512
					c0.926,0,1.729-0.176,2.41-0.527c0.682-0.353,1.236-0.831,1.666-1.436c0.43-0.605,0.748-1.276,0.957-2.014
					c0.209-0.736,0.314-1.49,0.314-2.26c0-0.793-0.111-1.552-0.33-2.277c-0.221-0.727-0.551-1.381-0.99-1.964
					c-0.441-0.582-1.002-1.039-1.684-1.369s-1.475-0.495-2.375-0.495c-0.926,0-1.723,0.177-2.393,0.528
					c-0.672,0.352-1.227,0.819-1.668,1.402c-0.439,0.583-0.764,1.243-0.973,1.979C430.783,22.837,430.677,23.591,430.677,24.361z"/>
				<path fill="#FFFFFF" d="M467.056,30.466v5.609h-16.697v-23.43h16.4v5.61h-9.965v3.3h8.514v5.214h-8.514v3.696H467.056z"/>
				<path fill="#FFFFFF" d="M470.152,36.075v-23.43h6.402v8.613h1.32l6.039-8.613h7.061l-8.25,11.319l9.01,12.11h-7.787
					l-6.338-8.976h-1.055v8.976H470.152z"/>
				<path fill="#FFFFFF" d="M512.543,18.256h-6.73v17.819h-6.436V18.256h-6.766v-5.61h19.932V18.256z"/>
				<path fill="#FFFFFF" d="M514.543,36.075v-23.43h6.436v7.755h3.828c1.76,0,3.271,0.313,4.537,0.94s2.244,1.519,2.938,2.673
					c0.693,1.155,1.039,2.536,1.039,4.142c0,1.629-0.33,3.036-0.99,4.225c-0.66,1.188-1.6,2.101-2.82,2.738
					c-1.221,0.639-2.68,0.957-4.373,0.957H514.543z M520.978,30.861h3.234c0.572,0,1.045-0.109,1.418-0.33
					c0.375-0.22,0.654-0.533,0.842-0.94c0.188-0.406,0.281-0.885,0.281-1.436c0-0.439-0.1-0.853-0.297-1.237
					c-0.199-0.385-0.484-0.698-0.857-0.94c-0.375-0.242-0.838-0.363-1.387-0.363h-3.234V30.861z M536.324,36.075v-23.43h6.434v23.43
					H536.324z"/>
			</g>
			<g>
				<g>
					<path fill="#FFFFFF" d="M47.669,64.465v-2.7h-10.82v-14.2h1.4v12.96h7.56v-12.96h1.38v12.96h1.72v3.94H47.669z"/>
					<path fill="#FFFFFF" d="M66.748,61.765v-14.2h1.381v12.28l8.8-12.28h1.3v14.2h-1.38v-12.06l-8.7,12.06H66.748z"/>
					<path fill="#FFFFFF" d="M102.776,61.765v-1.319c-0.907-0.027-1.76-0.193-2.561-0.5c-0.8-0.307-1.503-0.733-2.109-1.28
						c-0.607-0.547-1.08-1.196-1.42-1.95c-0.341-0.753-0.511-1.583-0.511-2.49c0-0.96,0.181-1.816,0.54-2.569
						c0.36-0.754,0.847-1.4,1.46-1.94s1.313-0.956,2.101-1.25c0.786-0.293,1.62-0.453,2.5-0.479v-1.061h1.319v1.061
						c0.894,0.026,1.74,0.193,2.54,0.5c0.801,0.307,1.504,0.733,2.11,1.279c0.606,0.547,1.083,1.197,1.43,1.95
						c0.347,0.754,0.521,1.59,0.521,2.51c0,0.934-0.177,1.78-0.53,2.54s-0.84,1.407-1.46,1.94s-1.327,0.95-2.12,1.25
						s-1.623,0.463-2.49,0.49v1.319H102.776z M102.796,59.285V49.145c-0.96,0.027-1.837,0.25-2.63,0.67
						c-0.793,0.421-1.427,1.004-1.899,1.75c-0.474,0.747-0.71,1.634-0.71,2.66c0,0.787,0.143,1.487,0.43,2.101
						c0.286,0.613,0.677,1.137,1.17,1.569c0.493,0.434,1.053,0.768,1.68,1C101.463,59.128,102.116,59.259,102.796,59.285z
						 M104.076,59.285c0.96-0.026,1.837-0.253,2.63-0.681c0.793-0.426,1.427-1.013,1.9-1.76c0.473-0.746,0.71-1.62,0.71-2.62
						c0-0.786-0.141-1.482-0.42-2.09c-0.28-0.606-0.667-1.13-1.16-1.57c-0.493-0.439-1.054-0.782-1.68-1.029
						c-0.627-0.247-1.287-0.377-1.98-0.391V59.285z"/>
					<path fill="#FFFFFF" d="M128.603,61.765v-14.2h5.881c0.612,0,1.176,0.127,1.689,0.381c0.514,0.253,0.957,0.597,1.33,1.029
						c0.373,0.434,0.667,0.914,0.88,1.44s0.32,1.063,0.32,1.609c0,0.773-0.17,1.504-0.51,2.19c-0.341,0.687-0.817,1.243-1.431,1.67
						s-1.333,0.64-2.16,0.64h-4.6v5.24H128.603z M130.004,55.285h4.54c0.56,0,1.047-0.153,1.46-0.46s0.733-0.707,0.96-1.2
						s0.34-1.026,0.34-1.601c0-0.586-0.133-1.126-0.399-1.619c-0.268-0.493-0.617-0.884-1.051-1.17
						c-0.433-0.287-0.909-0.431-1.43-0.431h-4.42V55.285z"/>
					<path fill="#FFFFFF" d="M162.469,61.865c-1,0-1.906-0.2-2.72-0.601c-0.813-0.399-1.514-0.943-2.1-1.63
						c-0.587-0.687-1.04-1.46-1.36-2.32c-0.32-0.859-0.48-1.743-0.48-2.649c0-0.946,0.167-1.851,0.5-2.71
						c0.334-0.86,0.804-1.627,1.41-2.3c0.606-0.674,1.316-1.207,2.13-1.601c0.813-0.393,1.693-0.59,2.641-0.59
						c1,0,1.906,0.207,2.72,0.62s1.51,0.967,2.09,1.66s1.03,1.467,1.351,2.319c0.319,0.854,0.479,1.728,0.479,2.62
						c0,0.947-0.167,1.851-0.5,2.71c-0.333,0.86-0.8,1.627-1.4,2.301c-0.6,0.673-1.307,1.203-2.119,1.59
						C164.297,61.672,163.417,61.865,162.469,61.865z M157.21,54.665c0,0.773,0.127,1.517,0.38,2.229
						c0.253,0.714,0.613,1.348,1.08,1.9c0.467,0.554,1.023,0.993,1.67,1.32c0.646,0.326,1.356,0.489,2.13,0.489
						c0.813,0,1.543-0.17,2.19-0.51c0.646-0.34,1.2-0.793,1.66-1.359c0.46-0.567,0.81-1.203,1.05-1.91s0.359-1.427,0.359-2.16
						c0-0.773-0.126-1.514-0.38-2.22c-0.253-0.707-0.616-1.341-1.09-1.9s-1.03-1-1.67-1.32c-0.64-0.319-1.347-0.479-2.12-0.479
						c-0.8,0-1.523,0.167-2.17,0.5s-1.2,0.783-1.66,1.35c-0.46,0.567-0.813,1.203-1.06,1.91
						C157.333,53.212,157.21,53.932,157.21,54.665z"/>
					<path fill="#FFFFFF" d="M197.847,58.105c0,0.707-0.18,1.337-0.54,1.891c-0.359,0.553-0.843,0.986-1.449,1.3
						c-0.607,0.313-1.271,0.47-1.99,0.47h-6.7v-14.2h6.84c0.667,0,1.243,0.178,1.73,0.53c0.486,0.354,0.859,0.807,1.12,1.36
						c0.26,0.554,0.39,1.13,0.39,1.729c0,0.707-0.18,1.36-0.54,1.96c-0.36,0.601-0.86,1.047-1.5,1.341
						c0.813,0.239,1.456,0.687,1.93,1.34S197.847,57.238,197.847,58.105z M188.568,48.785v5.239h4.88
						c0.466,0,0.88-0.123,1.239-0.369c0.36-0.247,0.647-0.57,0.86-0.971c0.213-0.399,0.32-0.826,0.32-1.279
						c0-0.48-0.101-0.917-0.3-1.311c-0.2-0.393-0.474-0.71-0.82-0.95c-0.347-0.239-0.74-0.359-1.18-0.359H188.568z M196.448,57.865
						c0-0.48-0.107-0.924-0.32-1.33c-0.214-0.407-0.504-0.737-0.87-0.99c-0.367-0.253-0.783-0.38-1.25-0.38h-5.439v5.38h5.3
						c0.479,0,0.913-0.127,1.3-0.38s0.696-0.583,0.93-0.99C196.331,58.769,196.448,58.332,196.448,57.865z"/>
					<path fill="#FFFFFF" d="M220.311,47.565h1.18l5.9,14.2h-1.48l-1.773-4.439h-6.491l-1.774,4.439h-1.5L220.311,47.565z
						 M223.697,56.225l-2.806-7.02l-2.806,7.02H223.697z"/>
					<path fill="#FFFFFF" d="M244.676,61.765l3.801-6.02c-1.027-0.24-1.817-0.727-2.37-1.46c-0.554-0.733-0.83-1.606-0.83-2.62
						c0-0.76,0.189-1.45,0.57-2.07c0.38-0.62,0.916-1.113,1.609-1.479c0.693-0.367,1.521-0.551,2.48-0.551h4.399v14.2h-1.38v-5.84
						h-2.54c-0.08,0-0.163,0-0.25,0s-0.17,0-0.25,0l-3.64,5.84H244.676z M249.997,54.705h2.96v-5.92h-2.88
						c-0.653,0-1.24,0.12-1.76,0.359c-0.521,0.24-0.92,0.574-1.2,1c-0.28,0.427-0.42,0.934-0.42,1.521s0.127,1.106,0.38,1.56
						c0.253,0.454,0.623,0.813,1.11,1.08C248.673,54.571,249.277,54.705,249.997,54.705z"/>
					<path fill="#FFFFFF" d="M294.396,61.765v-14.2h10.721v14.2h-1.4v-12.96h-7.92v12.96H294.396z"/>
					<path fill="#FFFFFF" d="M333.497,61.765v-12.96h-5.8l-0.08,3c-0.067,1.96-0.207,3.587-0.42,4.88
						c-0.214,1.294-0.514,2.311-0.9,3.051c-0.387,0.739-0.86,1.267-1.42,1.579c-0.56,0.313-1.227,0.471-2,0.471v-1.24
						c0.52,0,0.98-0.133,1.38-0.4c0.4-0.267,0.74-0.732,1.021-1.399c0.279-0.667,0.503-1.59,0.67-2.771
						c0.166-1.18,0.276-2.677,0.33-4.489l0.119-3.921h8.48v14.2H333.497z"/>
					<path fill="#FFFFFF" d="M358.32,47.565h1.18l5.9,14.2h-1.48l-1.773-4.439h-6.491l-1.774,4.439h-1.5L358.32,47.565z
						 M361.706,56.225l-2.806-7.02l-2.806,7.02H361.706z"/>
					<path fill="#FFFFFF" d="M391.171,48.805h-5.061v12.96h-1.399v-12.96h-5.061v-1.24h11.521V48.805z"/>
					<path fill="#FFFFFF" d="M413.634,61.765v-1.319c-0.907-0.027-1.761-0.193-2.561-0.5s-1.503-0.733-2.11-1.28
						c-0.606-0.547-1.079-1.196-1.42-1.95c-0.34-0.753-0.51-1.583-0.51-2.49c0-0.96,0.18-1.816,0.54-2.569
						c0.36-0.754,0.847-1.4,1.46-1.94s1.313-0.956,2.101-1.25c0.786-0.293,1.619-0.453,2.5-0.479v-1.061h1.319v1.061
						c0.894,0.026,1.74,0.193,2.54,0.5s1.503,0.733,2.11,1.279c0.606,0.547,1.083,1.197,1.43,1.95
						c0.347,0.754,0.521,1.59,0.521,2.51c0,0.934-0.177,1.78-0.53,2.54s-0.84,1.407-1.46,1.94s-1.327,0.95-2.12,1.25
						s-1.623,0.463-2.49,0.49v1.319H413.634z M413.654,59.285V49.145c-0.96,0.027-1.837,0.25-2.63,0.67
						c-0.794,0.421-1.427,1.004-1.9,1.75c-0.473,0.747-0.71,1.634-0.71,2.66c0,0.787,0.144,1.487,0.431,2.101
						c0.286,0.613,0.676,1.137,1.17,1.569c0.493,0.434,1.053,0.768,1.68,1C412.321,59.128,412.974,59.259,413.654,59.285z
						 M414.934,59.285c0.96-0.026,1.836-0.253,2.63-0.681c0.793-0.426,1.427-1.013,1.899-1.76c0.474-0.746,0.711-1.62,0.711-2.62
						c0-0.786-0.141-1.482-0.421-2.09c-0.279-0.606-0.666-1.13-1.159-1.57c-0.494-0.439-1.054-0.782-1.681-1.029
						s-1.286-0.377-1.979-0.391V59.285z"/>
					<path fill="#FFFFFF" d="M445.559,61.865c-1,0-1.907-0.2-2.72-0.601c-0.813-0.399-1.514-0.943-2.101-1.63s-1.04-1.46-1.359-2.32
						c-0.32-0.859-0.48-1.743-0.48-2.649c0-0.946,0.167-1.851,0.5-2.71c0.333-0.86,0.804-1.627,1.41-2.3
						c0.606-0.674,1.316-1.207,2.13-1.601c0.813-0.393,1.693-0.59,2.64-0.59c1,0,1.907,0.207,2.721,0.62
						c0.812,0.413,1.51,0.967,2.09,1.66s1.03,1.467,1.35,2.319c0.32,0.854,0.48,1.728,0.48,2.62c0,0.947-0.167,1.851-0.5,2.71
						c-0.334,0.86-0.8,1.627-1.4,2.301c-0.6,0.673-1.307,1.203-2.12,1.59S446.506,61.865,445.559,61.865z M440.299,54.665
						c0,0.773,0.126,1.517,0.38,2.229c0.253,0.714,0.613,1.348,1.08,1.9c0.467,0.554,1.022,0.993,1.67,1.32
						c0.646,0.326,1.356,0.489,2.13,0.489c0.813,0,1.543-0.17,2.19-0.51c0.646-0.34,1.199-0.793,1.659-1.359
						c0.46-0.567,0.811-1.203,1.051-1.91c0.239-0.707,0.359-1.427,0.359-2.16c0-0.773-0.127-1.514-0.38-2.22
						c-0.253-0.707-0.617-1.341-1.09-1.9c-0.474-0.56-1.03-1-1.67-1.32c-0.64-0.319-1.347-0.479-2.12-0.479
						c-0.8,0-1.523,0.167-2.17,0.5s-1.2,0.783-1.66,1.35c-0.46,0.567-0.813,1.203-1.06,1.91
						C440.423,53.212,440.299,53.932,440.299,54.665z"/>
					<path fill="#FFFFFF" d="M470.257,61.765v-14.2h5.88c0.613,0,1.177,0.127,1.689,0.381c0.514,0.253,0.957,0.597,1.33,1.029
						c0.373,0.434,0.667,0.914,0.88,1.44c0.214,0.526,0.32,1.063,0.32,1.609c0,0.773-0.17,1.504-0.51,2.19s-0.817,1.243-1.43,1.67
						c-0.614,0.427-1.334,0.64-2.16,0.64h-4.601v5.24H470.257z M471.657,55.285h4.54c0.561,0,1.047-0.153,1.46-0.46
						s0.733-0.707,0.96-1.2s0.341-1.026,0.341-1.601c0-0.586-0.134-1.126-0.4-1.619s-0.617-0.884-1.05-1.17
						c-0.434-0.287-0.91-0.431-1.431-0.431h-4.42V55.285z"/>
					<path fill="#FFFFFF" d="M510.609,61.765v-11.56l-5.141,8.979h-0.88l-5.16-8.979v11.56h-1.399v-14.2h1.439l5.54,9.721
						l5.58-9.721h1.42v14.2H510.609z"/>
					<path fill="#FFFFFF" d="M535.463,47.565h1.181l5.899,14.2h-1.479l-1.774-4.439h-6.491l-1.774,4.439h-1.5L535.463,47.565z
						 M538.848,56.225l-2.806-7.02l-2.806,7.02H538.848z"/>
				</g>
			</g>
		</g>
	</g>
</g>
<g id="white">
</g>
</svg>
